<svg width="121.454102" height="21.760010" viewBox="0 0 121.454 21.76" fill="none" xmlns="http://www.w3.org/2000/svg" xmlns:xlink="http://www.w3.org/1999/xlink">
	<desc>
			Created with Pixso.
	</desc>
	<defs/>
	<path id="Logo" d="M8.19 21.44L2.17 21.44L2.17 10.24L0 10.24L0 5.31L2.3 5.31C2.94 2.27 5.91 0 11.2 0L12.48 0L12.48 4.28L10.24 4.28C8.6 4.28 7.8 4.44 7.8 5.26C7.8 5.27 7.8 5.29 7.8 5.31L12.48 5.31L12.48 10.24L8.19 10.24L8.19 21.44ZM20.1 3.84L14.08 3.84L14.08 0L20.1 0L20.1 3.84ZM28.36 21.44L22.34 21.44L22.34 5.31L27.97 5.31L27.97 10.2L28.29 10.2C28.65 7.51 30.41 4.99 34.73 4.99C39.08 4.99 41.13 7.61 41.13 11.1L41.13 21.44L35.11 21.44L35.11 13.31C35.11 11.07 34.28 10.36 31.65 10.36C29 10.36 28.36 11.04 28.36 13.12L28.36 21.44ZM48.44 21.76C44.79 21.76 42.74 20.09 42.74 17.34C42.74 15.07 44.31 13.44 47.96 13.08L54.52 12.44L54.52 12.12C54.52 10.49 53.82 10.24 51.67 10.24C49.69 10.24 49.08 10.62 49.08 11.96L49.08 12.09L43.06 12.09L43.06 12.03C43.06 7.74 46.65 4.99 52.12 4.99C57.75 4.99 60.47 7.74 60.47 12.25L60.47 21.44L54.84 21.44L54.84 18.04L54.52 18.04C53.91 20.32 51.93 21.76 48.44 21.76ZM68.59 21.44L62.58 21.44L62.58 5.31L68.21 5.31L68.21 10.2L68.53 10.2C68.88 7.51 70.64 4.99 74.96 4.99C79.31 4.99 81.36 7.61 81.36 11.1L81.36 21.44L75.34 21.44L75.34 13.31C75.34 11.07 74.51 10.36 71.89 10.36C69.23 10.36 68.59 11.04 68.59 13.12L68.59 21.44ZM92.51 21.76C86.79 21.76 83.14 18.59 83.14 13.37C83.14 8.12 86.79 4.99 92.51 4.99C98.02 4.99 101.54 7.8 101.54 12.12L101.54 12.64L95.55 12.64L95.55 12.38C95.55 10.72 94.34 10.36 92.39 10.36C90.18 10.36 89.12 10.84 89.12 13.37C89.12 15.87 90.18 16.35 92.39 16.35C94.34 16.35 95.55 16.03 95.55 14.36L95.55 14.08L101.54 14.08L101.54 14.62C101.54 18.91 98.02 21.76 92.51 21.76ZM112.46 21.76C106.99 21.76 103.15 19.42 103.15 13.37C103.15 8.12 106.95 4.99 112.33 4.99C117.9 4.99 121.45 7.77 121.45 12.96C121.45 13.5 121.42 13.92 121.35 14.49L108.71 14.49C108.81 16.44 109.67 16.99 112.23 16.99C114.67 16.99 115.31 16.57 115.31 15.61L115.31 15.26L121.32 15.26L121.32 15.64C121.32 19.23 117.9 21.76 112.46 21.76ZM20.1 21.44L14.08 21.44L14.08 5.31L20.1 5.31L20.1 21.44ZM112.2 9.6C109.99 9.6 109.07 10.08 108.81 11.45L115.63 11.45C115.4 10.08 114.44 9.6 112.2 9.6ZM48.79 16.95C48.79 17.47 49.3 17.56 50.23 17.56C53.14 17.56 54.33 17.21 54.49 15.77L49.56 16.35C49.02 16.41 48.79 16.6 48.79 16.95Z" fill="#FFFFFF" fill-opacity="1.000000" fill-rule="evenodd"/>
</svg>
